<svg width="128" height="128" viewBox="0 0 128 128" fill="none" xmlns="http://www.w3.org/2000/svg">
  <!-- Pharaoh's pyramid with clock elements - larger version for icon -->
  <g>
    <!-- Main pyramid structure -->
    <path d="M64 16 L24 80 L104 80 Z" fill="#ff7000" stroke="#e85d00" stroke-width="3"/>
    
    <!-- Inner pyramid details with gradient effect -->
    <path d="M64 16 L40 56 L88 56 Z" fill="#ffaa55" opacity="0.8"/>
    <path d="M64 16 L52 36 L76 36 Z" fill="#ffcc88" opacity="0.6"/>
    
    <!-- Eye of Horus stylized as clock face -->
    <circle cx="64" cy="50" r="16" fill="#fff" stroke="#ff7000" stroke-width="4"/>
    
    <!-- Clock hands -->
    <line x1="64" y1="50" x2="64" y2="38" stroke="#ff7000" stroke-width="6" stroke-linecap="round"/>
    <line x1="64" y1="50" x2="72" y2="50" stroke="#ff7000" stroke-width="4" stroke-linecap="round"/>
    
    <!-- Hour markers -->
    <circle cx="64" cy="34" r="2" fill="#ff7000"/>
    <circle cx="78" cy="50" r="2" fill="#ff7000"/>
    <circle cx="64" cy="66" r="2" fill="#ff7000"/>
    <circle cx="50" cy="50" r="2" fill="#ff7000"/>
    
    <!-- Diagonal markers -->
    <circle cx="75.3" cy="38.7" r="1.5" fill="#ff7000" opacity="0.7"/>
    <circle cx="75.3" cy="61.3" r="1.5" fill="#ff7000" opacity="0.7"/>
    <circle cx="52.7" cy="61.3" r="1.5" fill="#ff7000" opacity="0.7"/>
    <circle cx="52.7" cy="38.7" r="1.5" fill="#ff7000" opacity="0.7"/>
    
    <!-- Center dot -->
    <circle cx="64" cy="50" r="4" fill="#ff7000"/>
    
    <!-- Base decoration -->
    <rect x="20" y="80" width="88" height="8" fill="#ff7000" rx="4"/>
    <rect x="28" y="88" width="72" height="4" fill="#ffaa55" opacity="0.8" rx="2"/>
    <rect x="36" y="92" width="56" height="2" fill="#ffcc88" opacity="0.6" rx="1"/>
    
    <!-- Side details for depth -->
    <path d="M24 80 L64 16 L64 50 L40 80 Z" fill="#e85d00" opacity="0.3"/>
    <path d="M104 80 L64 16 L64 50 L88 80 Z" fill="#cc4400" opacity="0.2"/>
  </g>
</svg>